<svg fill="#000000" xmlns="http://www.w3.org/2000/svg"  viewBox="0 0 64 64" width="64px" height="64px"><path d="M 16.140625 7.0273438 L 19.851562 20.433594 L 19.853516 20.433594 L 19.853516 26.865234 L 23.066406 26.865234 L 23.066406 20.433594 L 26.826172 7.0273438 L 23.587891 7.0273438 L 22.240234 13.126953 C 21.861234 14.907953 21.618813 16.176641 21.507812 16.931641 L 21.412109 16.931641 C 21.255109 15.876641 21.009687 14.598516 20.679688 13.103516 L 19.378906 7.0273438 L 16.140625 7.0273438 z M 30.574219 12.089844 C 29.484219 12.089844 28.6065 12.303281 27.9375 12.738281 C 27.2665 13.171281 26.774984 13.861641 26.458984 14.806641 C 26.144984 15.753641 25.986328 17.006406 25.986328 18.566406 L 25.986328 20.669922 C 25.986328 22.212922 26.124391 23.450859 26.400391 24.380859 C 26.676391 25.310859 27.140922 25.9965 27.794922 26.4375 C 28.449922 26.8785 29.353906 27.099516 30.503906 27.103516 C 31.622906 27.103516 32.509109 26.887125 33.162109 26.453125 C 33.815109 26.019125 34.289078 25.335484 34.580078 24.396484 C 34.871078 23.457484 35.017578 22.218828 35.017578 20.673828 L 35.017578 18.566406 C 35.017578 17.006406 34.867359 15.759313 34.568359 14.820312 C 34.269359 13.883313 33.798391 13.192953 33.150391 12.751953 C 32.504391 12.310953 31.645219 12.089844 30.574219 12.089844 z M 36.707031 12.371094 L 36.707031 23.197266 C 36.707031 24.538266 36.938531 25.525297 37.394531 26.154297 C 37.852531 26.783297 38.561437 27.099609 39.523438 27.099609 C 40.910438 27.099609 41.950578 26.431797 42.642578 25.091797 L 42.714844 25.091797 L 42.998047 26.863281 L 45.550781 26.863281 L 45.550781 12.371094 L 42.287109 12.371094 L 42.287109 23.882812 C 42.162109 24.152813 41.969984 24.370922 41.708984 24.544922 C 41.447984 24.719922 41.178531 24.806641 40.894531 24.806641 C 40.561531 24.806641 40.325594 24.668578 40.183594 24.392578 C 40.041594 24.116578 39.970703 23.657766 39.970703 23.009766 L 39.970703 12.371094 L 36.707031 12.371094 z M 30.503906 14.335938 C 30.959906 14.335938 31.280938 14.573688 31.460938 15.054688 C 31.642937 15.533687 31.732422 16.294937 31.732422 17.335938 L 31.732422 21.851562 C 31.732422 22.924563 31.640937 23.696922 31.460938 24.169922 C 31.280938 24.641922 30.958906 24.877859 30.503906 24.880859 C 30.047906 24.880859 29.732594 24.642922 29.558594 24.169922 C 29.383594 23.696922 29.298828 22.922563 29.298828 21.851562 L 29.298828 17.335938 C 29.298828 16.296937 29.390313 15.535687 29.570312 15.054688 C 29.750313 14.575688 30.062906 14.335938 30.503906 14.335938 z M 14 31 C 11.239 31 9 33.239 9 36 L 9 52 C 9 54.761 11.239 57 14 57 L 50 57 C 52.761 57 55 54.761 55 52 L 55 36 C 55 33.239 52.761 31 50 31 L 14 31 z M 32.119141 34.806641 L 34.71875 34.806641 L 34.71875 41.117188 L 34.738281 41.117188 C 34.971281 40.661187 35.304375 40.293672 35.734375 40.013672 C 36.164375 39.733672 36.627047 39.59375 37.123047 39.59375 C 37.762047 39.59375 38.263 39.763562 38.625 40.101562 C 38.987 40.439563 39.252063 40.988141 39.414062 41.744141 C 39.576062 42.501141 39.658203 43.549625 39.658203 44.890625 L 39.658203 46.783203 L 39.660156 46.783203 C 39.660156 48.568203 39.443672 49.879703 39.013672 50.720703 C 38.583672 51.561703 37.912953 51.982422 37.001953 51.982422 C 36.493953 51.982422 36.031281 51.863859 35.613281 51.630859 C 35.195281 51.397859 34.885734 51.076875 34.677734 50.671875 L 34.617188 50.671875 L 34.345703 51.804688 L 32.119141 51.804688 L 32.119141 34.806641 z M 16 35.412109 L 23.990234 35.412109 L 23.990234 37.582031 L 21.314453 37.582031 L 21.314453 51.804688 L 18.677734 51.804688 L 18.677734 37.582031 L 16 37.582031 L 16 35.412109 z M 44.521484 39.601562 C 45.444484 39.601562 46.154391 39.771375 46.650391 40.109375 C 47.143391 40.449375 47.494266 40.977406 47.697266 41.691406 C 47.898266 42.407406 48 43.397156 48 44.660156 L 48 46.712891 L 48 46.714844 L 43.488281 46.714844 L 43.488281 47.320312 C 43.488281 48.090313 43.511594 48.667781 43.558594 49.050781 C 43.605594 49.433781 43.698797 49.716625 43.841797 49.890625 C 43.984797 50.066625 44.204906 50.152344 44.503906 50.152344 C 44.906906 50.152344 45.184937 49.994594 45.335938 49.683594 C 45.484938 49.372594 45.565125 48.850094 45.578125 48.121094 L 47.904297 48.257812 C 47.916297 48.359812 47.923828 48.5055 47.923828 48.6875 C 47.923828 49.7945 47.621625 50.624922 47.015625 51.169922 C 46.409625 51.718922 45.553313 51.990234 44.445312 51.990234 C 43.117312 51.990234 42.186391 51.571281 41.650391 50.738281 C 41.114391 49.905281 40.849609 48.616094 40.849609 46.871094 L 40.849609 44.779297 C 40.849609 42.982297 41.128641 41.670797 41.681641 40.841797 C 42.234641 40.012797 43.180484 39.601562 44.521484 39.601562 z M 27.802734 39.822266 L 30.5 39.822266 L 30.5 51.798828 L 30.494141 51.798828 L 30.494141 51.804688 L 28.384766 51.804688 L 28.150391 50.337891 L 28.091797 50.337891 C 27.516797 51.446891 26.657719 52 25.511719 52 C 24.715719 52 24.131906 51.74075 23.753906 51.21875 C 23.374906 50.69875 23.1875 49.880391 23.1875 48.775391 L 23.1875 39.826172 L 25.886719 39.826172 L 25.886719 48.619141 C 25.886719 49.151141 25.9455 49.536719 26.0625 49.761719 C 26.1815 49.990719 26.374391 50.103516 26.650391 50.103516 C 26.883391 50.103516 27.107266 50.031719 27.322266 49.886719 C 27.539266 49.743719 27.696734 49.559891 27.802734 49.337891 L 27.802734 39.822266 z M 44.462891 41.419922 C 44.175891 41.419922 43.964172 41.505828 43.826172 41.673828 C 43.689172 41.843828 43.597687 42.120859 43.554688 42.505859 C 43.507688 42.888859 43.484375 43.473906 43.484375 44.253906 L 43.484375 45.113281 L 45.457031 45.113281 L 45.457031 44.253906 C 45.457031 43.483906 45.429906 42.902859 45.378906 42.505859 C 45.328906 42.106859 45.236609 41.827063 45.099609 41.664062 C 44.962609 41.502063 44.751891 41.419922 44.462891 41.419922 z M 35.908203 41.509766 C 35.648203 41.509766 35.407547 41.611312 35.185547 41.820312 C 34.964547 42.029313 34.806797 42.298094 34.716797 42.621094 L 34.716797 49.421875 C 34.835797 49.630875 34.987781 49.785625 35.175781 49.890625 C 35.363781 49.992625 35.568016 50.048828 35.791016 50.048828 C 36.078016 50.048828 36.304609 49.945328 36.474609 49.736328 C 36.644609 49.527328 36.766937 49.176641 36.835938 48.681641 C 36.907938 48.188641 36.943359 47.502859 36.943359 46.630859 L 36.943359 45.087891 C 36.943359 44.150891 36.914469 43.427969 36.855469 42.917969 C 36.800469 42.409969 36.693875 42.043078 36.546875 41.830078 C 36.397875 41.617078 36.185203 41.509766 35.908203 41.509766 z"/></svg>